<svg xmlns="http://www.w3.org/2000/svg" fill="none" viewBox="0 0 24 24" id="Reddit-Icon--Streamline-Svg-Logos" height="24" width="24">
  <desc>
    Reddit Icon Streamline Icon: https://streamlinehq.com
  </desc>
  <path fill="#ff4500" d="M12 23.75c6.48935 0 11.75 -5.26065 11.75 -11.75S18.48935 0.25 12 0.25 0.25 5.51065 0.25 12s5.26065 11.75 11.75 11.75Z" stroke-width="0.25"></path>
  <path fill="#ffffff" d="M19.81645 12.11205c0 -0.952525 -0.770275 -1.708975 -1.708975 -1.708975 -0.46215 0 -0.88255 0.182 -1.19065 0.476275 -1.176575 -0.840525 -2.787625 -1.386775 -4.580675 -1.45675l0.784375 -3.670175 2.549475 0.54625c0.0282 0.644425 0.56035 1.162725 1.218875 1.162725 0.672375 0 1.2186 -0.54625 1.2186 -1.218875 0 -0.67235 -0.546225 -1.2186 -1.2186 -1.2186 -0.476275 0 -0.89665 0.280175 -1.09275 0.68645l-2.8435 -0.602375c-0.084075 -0.0141 -0.16815 0 -0.2243 0.04205 -0.069975 0.042025 -0.112 0.112 -0.12585 0.196075L11.73375 9.43645c-1.820975 0.056125 -3.459975 0.602375 -4.65065 1.457 -0.3081 -0.294275 -0.7285 -0.476275 -1.19065 -0.476275 -0.95255 0 -1.708975 0.770275 -1.708975 1.708975 0 0.7003 0.420125 1.288575 1.008675 1.554925 -0.0282 0.167875 -0.04205 0.33605 -0.04205 0.5183 0 2.6333 3.0678 4.776775 6.85 4.776775 3.7822 0 6.849975 -2.129375 6.849975 -4.776775 0 -0.16815 -0.0141 -0.350425 -0.042025 -0.5183 0.588275 -0.26635 1.0084 -0.868725 1.0084 -1.569025Zm-11.738775 1.2186c0 -0.67235 0.54625 -1.2186 1.218875 -1.2186 0.67235 0 1.2186 0.54625 1.2186 1.2186 0 0.672375 -0.54625 1.218875 -1.2186 1.218875 -0.672625 0.013825 -1.218875 -0.5465 -1.218875 -1.218875Zm6.82205 3.23595c-0.8405 0.840525 -2.437475 0.89665 -2.899625 0.89665 -0.476275 0 -2.073225 -0.070225 -2.8999 -0.89665 -0.12585 -0.126125 -0.12585 -0.3222 0 -0.448325 0.1261 -0.12585 0.3222 -0.12585 0.448325 0 0.5324 0.5324 1.6531 0.7144 2.451575 0.7144s1.933 -0.182 2.4513 -0.7144c0.126125 -0.12585 0.322225 -0.12585 0.448325 0 0.112025 0.126125 0.112025 0.3222 0 0.448325Zm-0.224275 -2.00325c-0.672375 0 -1.218625 -0.546225 -1.218625 -1.2186 0 -0.67235 0.54625 -1.2186 1.218625 -1.2186 0.6726 0 1.21885 0.54625 1.21885 1.2186 0 0.658275 -0.54625 1.2186 -1.21885 1.2186Z" stroke-width="0.25"></path>
</svg>