<svg width="5944" height="762" viewBox="0 0 5944 762" fill="none" xmlns="http://www.w3.org/2000/svg">
<path d="M3014 615V164.5H3079.45L3082 278.4L3071.8 275C3076.9 250.067 3085.68 228.817 3098.15 211.25C3111.18 193.117 3127.05 179.233 3145.75 169.6C3164.45 159.4 3185.13 154.3 3207.8 154.3C3246.9 154.3 3278.63 165.067 3303 186.6C3327.93 208.133 3343.52 238.167 3349.75 276.7L3336.15 275.85C3340.68 249.783 3348.9 227.967 3360.8 210.4C3373.27 192.267 3389.13 178.383 3408.4 168.75C3427.67 159.117 3449.77 154.3 3474.7 154.3C3507 154.3 3534.2 161.1 3556.3 174.7C3578.4 187.733 3595.12 207 3606.45 232.5C3617.78 258 3623.45 288.883 3623.45 325.15V615H3552.05V340.45C3552.05 299.65 3544.12 269.05 3528.25 248.65C3512.38 227.683 3488.87 217.2 3457.7 217.2C3436.73 217.2 3418.32 222.3 3402.45 232.5C3387.15 242.7 3375.25 257.433 3366.75 276.7C3358.25 295.4 3354 318.35 3354 345.55V615H3282.6V345.55C3282.6 305.317 3275.52 273.867 3261.35 251.2C3247.18 228.533 3223.38 217.2 3189.95 217.2C3168.98 217.2 3150.57 222.3 3134.7 232.5C3119.4 242.7 3107.22 257.433 3098.15 276.7C3089.65 295.967 3085.4 318.917 3085.4 345.55V615H3014ZM3872.66 625.2C3826.19 625.2 3789.08 614.433 3761.31 592.9C3734.11 571.367 3720.51 541.333 3720.51 502.8C3720.51 464.267 3731.84 433.95 3754.51 411.85C3777.18 389.75 3813.16 374.167 3862.46 365.1L4022.26 335.35C4022.26 297.383 4013.19 269.05 3995.06 250.35C3977.49 231.65 3950.86 222.3 3915.16 222.3C3883.99 222.3 3859.34 229.383 3841.21 243.55C3823.08 257.15 3810.61 276.983 3803.81 303.05L3728.16 297.1C3736.66 254.6 3757.06 220.317 3789.36 194.25C3822.23 167.617 3864.16 154.3 3915.16 154.3C3972.96 154.3 4017.16 170.733 4047.76 203.6C4078.36 235.9 4093.66 280.667 4093.66 337.9V524.05C4093.66 534.25 4095.36 541.617 4098.76 546.15C4102.73 550.117 4108.96 552.1 4117.46 552.1H4135.31V615C4133.04 615.567 4129.36 615.85 4124.26 615.85C4119.16 616.417 4113.78 616.7 4108.11 616.7C4087.71 616.7 4070.99 613.583 4057.96 607.35C4045.49 600.55 4036.43 590.35 4030.76 576.75C4025.09 562.583 4022.26 544.167 4022.26 521.5L4030.76 523.2C4026.79 542.467 4017.16 560.033 4001.86 575.9C3986.56 591.2 3967.58 603.383 3944.91 612.45C3922.24 620.95 3898.16 625.2 3872.66 625.2ZM3879.46 562.3C3909.49 562.3 3934.99 556.633 3955.96 545.3C3977.49 533.4 3993.93 517.533 4005.26 497.7C4016.59 477.3 4022.26 454.633 4022.26 429.7V397.4L3876.06 424.6C3845.46 430.267 3824.21 439.05 3812.31 450.95C3800.98 462.283 3795.31 477.3 3795.31 496C3795.31 516.967 3802.68 533.4 3817.41 545.3C3832.71 556.633 3853.39 562.3 3879.46 562.3ZM4215.95 615V164.5H4278.85L4282.25 278.4L4275.45 275.85C4281.12 237.317 4293.3 209.267 4312 191.7C4331.27 173.567 4356.77 164.5 4388.5 164.5H4432.7V232.5H4389.35C4366.69 232.5 4347.7 236.75 4332.4 245.25C4317.67 253.183 4306.34 265.367 4298.4 281.8C4291.04 297.667 4287.35 318.067 4287.35 343V615H4215.95ZM4512.29 615V11.5H4583.69V406.75L4802.99 164.5H4898.19L4720.54 355.75L4905.84 615H4819.14L4672.09 404.2L4583.69 497.7V615H4512.29ZM5147.27 625.2C5104.77 625.2 5067.94 615.567 5036.77 596.3C5006.17 577.033 4982.37 549.833 4965.37 514.7C4948.94 479 4940.72 437.35 4940.72 389.75C4940.72 342.15 4948.94 300.783 4965.37 265.65C4982.37 230.517 5005.89 203.317 5035.92 184.05C5066.52 164.217 5102.51 154.3 5143.87 154.3C5182.97 154.3 5217.54 163.65 5247.57 182.35C5277.61 200.483 5300.84 227.117 5317.27 262.25C5334.27 297.383 5342.77 340.167 5342.77 390.6V411.85H5015.52C5018.36 460.017 5031.11 496.283 5053.77 520.65C5077.01 545.017 5108.17 557.2 5147.27 557.2C5176.74 557.2 5200.82 550.4 5219.52 536.8C5238.79 522.633 5252.11 504.217 5259.47 481.55L5335.97 487.5C5324.07 527.733 5301.41 560.883 5267.97 586.95C5235.11 612.45 5194.87 625.2 5147.27 625.2ZM5015.52 348.95H5264.57C5261.17 305.317 5248.42 273.3 5226.32 252.9C5204.79 232.5 5177.31 222.3 5143.87 222.3C5109.31 222.3 5080.69 233.067 5058.02 254.6C5035.92 275.567 5021.76 307.017 5015.52 348.95ZM5586.96 615C5546.16 615 5515.84 605.65 5496.01 586.95C5476.74 568.25 5467.11 539.067 5467.11 499.4V59.1H5538.51V497.7C5538.51 518.1 5543.04 532.267 5552.11 540.2C5561.17 548.133 5575.06 552.1 5593.76 552.1H5658.36V615H5586.96ZM5400.81 227.4V164.5H5658.36V227.4H5400.81Z" fill="white"/>
<path d="M716.1 742.5V159.4H838.5L841.05 255.45L830.85 251.2C842.183 218.333 860.6 193.117 886.1 175.55C911.6 157.983 941.35 149.2 975.35 149.2C1017.85 149.2 1053.27 159.683 1081.6 180.65C1109.93 201.617 1131.18 230.233 1145.35 266.5C1160.08 302.2 1167.45 342.433 1167.45 387.2C1167.45 431.4 1160.08 471.633 1145.35 507.9C1131.18 544.167 1109.65 572.783 1080.75 593.75C1052.42 614.717 1017 625.2 974.5 625.2C952.4 625.2 931.717 621.233 912.45 613.3C893.183 604.8 876.467 593.183 862.3 578.45C848.7 563.717 838.783 546.15 832.55 525.75L843.6 518.95V742.5H716.1ZM939.65 527.45C969.683 527.45 993.2 514.983 1010.2 490.05C1027.77 465.117 1036.55 430.833 1036.55 387.2C1036.55 343.567 1027.77 309.283 1010.2 284.35C993.2 259.417 969.683 246.95 939.65 246.95C919.817 246.95 902.533 252.333 887.8 263.1C873.633 273.3 862.583 288.883 854.65 309.85C847.283 330.817 843.6 356.6 843.6 387.2C843.6 417.8 847.283 443.583 854.65 464.55C862.583 485.517 873.633 501.383 887.8 512.15C902.533 522.35 919.817 527.45 939.65 527.45ZM1451.37 625.2C1404.9 625.2 1364.39 615.567 1329.82 596.3C1295.82 576.467 1269.19 548.7 1249.92 513C1231.22 477.3 1221.87 435.367 1221.87 387.2C1221.87 339.033 1231.22 297.383 1249.92 262.25C1269.19 226.55 1295.82 198.783 1329.82 178.95C1363.82 159.117 1404.05 149.2 1450.52 149.2C1495.85 149.2 1535.24 159.117 1568.67 178.95C1602.1 198.783 1627.89 227.117 1646.02 263.95C1664.72 300.783 1674.07 344.7 1674.07 395.7V421.2H1353.62C1355.32 457.467 1364.95 484.383 1382.52 501.95C1400.65 519.517 1424.45 528.3 1453.92 528.3C1475.45 528.3 1493.3 523.767 1507.47 514.7C1522.2 505.633 1532.69 491.75 1538.92 473.05L1667.27 480.7C1655.37 526.033 1630.15 561.45 1591.62 586.95C1553.09 612.45 1506.34 625.2 1451.37 625.2ZM1353.62 343H1543.17C1541.47 309.567 1532.12 284.633 1515.12 268.2C1498.69 251.767 1477.15 243.55 1450.52 243.55C1423.89 243.55 1401.79 252.333 1384.22 269.9C1367.22 286.9 1357.02 311.267 1353.62 343ZM1752.87 615V159.4H1867.62L1872.72 292.85L1856.57 288.6C1861.1 254.6 1870.17 227.4 1883.77 207C1897.93 186.6 1915.5 171.867 1936.47 162.8C1957.43 153.733 1980.38 149.2 2005.32 149.2C2038.18 149.2 2065.95 156.283 2088.62 170.45C2111.85 184.617 2129.42 204.733 2141.32 230.8C2153.78 256.3 2160.02 286.617 2160.02 321.75V615H2032.52V364.25C2032.52 339.883 2030.53 319.2 2026.57 302.2C2022.6 285.2 2015.52 272.45 2005.32 263.95C1995.12 254.883 1980.95 250.35 1962.82 250.35C1936.18 250.35 1915.78 260.267 1901.62 280.1C1887.45 299.367 1880.37 327.417 1880.37 364.25V615H1752.87ZM2384.86 615C2347.46 615 2318.27 605.65 2297.31 586.95C2276.34 568.25 2265.86 537.933 2265.86 496V11.5H2393.36V482.4C2393.36 496 2396.47 505.633 2402.71 511.3C2408.94 516.967 2418.01 519.8 2429.91 519.8H2460.51V615H2384.86ZM2540.66 742.5V647.3H2601.01C2615.74 647.3 2626.51 645.033 2633.31 640.5C2640.67 636.533 2646.34 629.167 2650.31 618.4L2659.66 592.05H2624.81L2465.01 159.4H2595.06L2699.61 473.05L2797.36 159.4H2927.41L2752.31 658.35C2742.11 688.383 2727.37 709.917 2708.11 722.95C2688.84 735.983 2661.92 742.5 2627.36 742.5H2540.66Z" fill="white"/>
<path d="M660 432C660 614.254 512.254 762 330 762C147.746 762 0 614.254 0 432C0 249.746 147.746 102 330 102C512.254 102 660 249.746 660 432Z" fill="white"/>
</svg>
